<svg xmlns="http://www.w3.org/2000/svg" data-testid="spot-message" viewBox="0 0 48 48"><path fill="#fff" d="M29.99 21c2.893 0 5.568.696 7.8 1.896.377.203.748.407 1.099.638.337.224.647.469.956.716.012.009.03.01.042.02C42.42 26.29 44 29.076 44 32.161c0 3.04-1.543 5.782-4.012 7.795-.012.082-.02.171-.02.232 0 1.78 1.47 3.231 3.34 3.25a8.249 8.249 0 0 1-2.973.561c-1.804 0-3.429-.624-4.745-1.605a17.04 17.04 0 0 1-5.6.947c-7.731 0-13.99-5.01-13.99-11.18C16 25.99 22.26 21 29.99 21Z"/><path fill="#620F12" fill-rule="evenodd" d="M38.889 23.534c-.35-.23-.722-.435-1.1-.638-1.707-.918-3.675-1.542-5.802-1.784A17.652 17.652 0 0 0 29.991 21C22.259 21 16 25.99 16 32.161c0 6.17 6.259 11.181 13.99 11.181a17.044 17.044 0 0 0 5.6-.947c1.135.846 2.5 1.427 4.012 1.57.24.023.485.035.733.035a8.249 8.249 0 0 0 2.972-.56 3.395 3.395 0 0 1-2.774-1.444 3.163 3.163 0 0 1-.565-1.807c0-.06.008-.15.02-.232C42.457 37.944 44 35.202 44 32.162c0-3.085-1.58-5.87-4.113-7.893-.006-.004-.014-.007-.022-.01a.072.072 0 0 1-.02-.009c-.31-.247-.619-.492-.956-.716Zm2.076-.95a13.955 13.955 0 0 0-.971-.717l-.005-.003a16.154 16.154 0 0 0-1.252-.73m2.228 1.45c.053.035.11.075.17.122C44.042 25.028 46 28.352 46 32.162c0 3.365-1.533 6.34-3.887 8.586.21.388.638.686 1.215.692a2 2 0 0 1 .706 3.863A10.24 10.24 0 0 1 40.34 46h-.005a9.81 9.81 0 0 1-5.054-1.409 19.07 19.07 0 0 1-5.29.751h-.001c-8.395 0-15.99-5.512-15.99-13.18C14 24.487 21.6 19 29.99 19c3.212 0 6.214.773 8.746 2.134" clip-rule="evenodd"/><circle cx="24" cy="32" r="2" fill="#620F12"/><circle cx="30" cy="32" r="2" fill="#620F12"/><circle cx="36" cy="32" r="2" fill="#620F12"/><path fill="#D92228" d="M18.01 4c-2.893 0-5.568.696-7.8 1.896-.377.203-.749.407-1.099.638-.337.224-.647.468-.956.716-.012.009-.03.01-.042.02C5.58 9.29 4 12.076 4 15.161c0 3.04 1.543 5.782 4.012 7.795.012.082.02.171.02.232 0 1.78-1.47 3.231-3.34 3.25A8.249 8.249 0 0 0 7.666 27c1.804 0 3.429-.624 4.746-1.605 1.79.625 3.687.946 5.6.947 7.73 0 13.989-5.01 13.989-11.18C32 8.99 25.74 4 18.01 4Z"/><circle cx="12" cy="15" r="2" fill="#620F12"/><circle cx="18" cy="15" r="2" fill="#620F12"/><circle cx="24" cy="15" r="2" fill="#620F12"/><path fill="#D92228" fill-rule="evenodd" d="M9.111 6.534c.35-.23.722-.435 1.1-.638 1.707-.918 3.675-1.542 5.802-1.784A17.661 17.661 0 0 1 18.009 4C25.741 4 32 8.99 32 15.161c0 6.17-6.259 11.181-13.99 11.181a17.044 17.044 0 0 1-5.6-.947c-1.136.846-2.5 1.427-4.012 1.57a7.69 7.69 0 0 1-.733.035 8.249 8.249 0 0 1-2.972-.56 3.395 3.395 0 0 0 2.774-1.444 3.164 3.164 0 0 0 .565-1.807c0-.06-.008-.15-.02-.232C5.543 20.944 4 18.202 4 15.162c0-3.085 1.58-5.87 4.113-7.893a.072.072 0 0 1 .022-.01.075.075 0 0 0 .02-.009c.31-.248.619-.492.957-.716Zm-2.076-.95c.281-.223.608-.476.971-.717l.005-.003a16.1 16.1 0 0 1 1.252-.73m-2.228 1.45a2.57 2.57 0 0 0-.17.122C3.958 8.028 2 11.352 2 15.162c0 3.365 1.533 6.34 3.887 8.586-.21.388-.638.686-1.215.692a2 2 0 0 0-.706 3.863A10.24 10.24 0 0 0 7.66 29h.005a9.81 9.81 0 0 0 5.054-1.409 19.07 19.07 0 0 0 5.29.751h.001c8.395 0 15.99-5.512 15.99-13.18C34 7.487 26.4 2 18.01 2c-3.212 0-6.214.773-8.746 2.134" clip-rule="evenodd"/></svg>