<svg xmlns="http://www.w3.org/2000/svg" data-testid="spot-listings" viewBox="0 0 48 48"><path fill="#fff" d="M2.368 29.71 5.33 28l3.631 6.29L6 36z"/><path fill="#D92228" d="m13.999 20.422-9.463 5.463L10.6 36.39l9.463-5.464-6.064-10.503Zm18.184-8.167-4.17.778a1 1 0 0 0-.682 1.483l4.49 7.776a1 1 0 0 0 1.697.056l2.478-3.708a1 1 0 0 0 .035-1.056l-2.799-4.846a1 1 0 0 0-1.05-.483Z"/><path fill="#fff" d="M39.031 29.818c-9.186-2.461-16.168-.51-18.922 1.08l-6.064-10.503c2.908-1.68 7.967-5.432 10.643-15.42l14.343 24.843ZM24.602 40.983a1 1 0 0 1-.247 1.53l-1.895 1.094a1 1 0 0 1-1.247-.201l-7.69-8.643 3.666-2.117 7.413 8.337Z"/><path fill="#620F12" fill-rule="evenodd" d="M34.995 2.16a1 1 0 0 1 .296 1.384l-3.266 5.043a1 1 0 1 1-1.68-1.087l3.267-5.043a1 1 0 0 1 1.383-.296Zm3.324 20.02a1 1 0 0 1 .948-1.05l6-.306a1 1 0 0 1 .103 1.998l-6.001.306a1 1 0 0 1-1.05-.948Zm-1.269-7.979a1 1 0 0 1 .366-1.366l5.196-3a1 1 0 1 1 1 1.732l-5.196 3a1 1 0 0 1-1.366-.366Z" clip-rule="evenodd"/><path fill="#fff" d="M24.602 40.983a1 1 0 0 1-.247 1.53l-1.895 1.094a1 1 0 0 1-1.247-.201l-7.691-8.643 3.667-2.117 7.413 8.337Z"/><path fill="#620F12" fill-rule="evenodd" d="M12.535 34.604a1 1 0 0 1 .487-.707l3.667-2.117a1 1 0 0 1 1.247.201l7.413 8.337a2 2 0 0 1-.494 3.061l-1.895 1.094a2 2 0 0 1-2.494-.402l-7.691-8.643a1 1 0 0 1-.24-.824Zm2.55.411 6.875 7.726 1.895-1.094-6.872-7.727-1.898 1.095Z" clip-rule="evenodd"/><path fill="#620F12" fill-rule="evenodd" d="M24.558 3.984a1 1 0 0 1 .996.491l14.343 24.843a1 1 0 0 1-1.125 1.466c-8.95-2.398-15.656-.467-18.163.98a.917.917 0 0 1-.047.026h.001L11.1 37.256a1 1 0 0 1-1.366-.366l-.623-1.08-2.793 1.613a1 1 0 0 1-1.366-.366l-3.818-6.613a1 1 0 0 1 .366-1.366l2.793-1.613-.623-1.079a1 1 0 0 1 .366-1.366l9.463-5.463a.894.894 0 0 1 .046-.027c2.72-1.57 7.58-5.123 10.177-14.812a1 1 0 0 1 .835-.733Zm-4.949 26.048a.973.973 0 0 0-.045.028v-.001l-8.598 4.963-5.064-8.77 8.597-4.964v-.002l.046-.025c2.86-1.651 7.562-5.15 10.436-13.779l12.03 20.836c-8.308-1.668-14.648.124-17.402 1.714ZM6.184 35.19l-2.818-4.881 1.661-.96 2.818 4.882-1.66.959Z" clip-rule="evenodd"/></svg>