<svg xmlns="http://www.w3.org/2000/svg" data-testid="spot-monitor-data" viewBox="0 0 48 48"><path fill="#D92228" d="M5.585 30h36.83c1.428 0 2.585.215 2.585.48L44 35c0 .265-.157 1-1.585 1H29.71c-.435 2.535.174 5.465 2.29 8H17c2.11-2.535 2.725-5.465 2.29-8H5.585C4.157 36 3.5 35.265 3.5 35L3 30.48c0-.265 1.157-.48 2.585-.48Z"/><path fill="#fff" d="M42.415 4H5.585C4.157 4 3 4.93 3 6.077v21.846C3 29.07 4.157 30 5.585 30h36.83C43.843 30 45 29.07 45 27.923V6.077C45 4.93 43.843 4 42.415 4Z"/><path fill="#D92228" d="M21 19v-7c-3.84 0-7 3.16-7 7s3.16 7 7 7 7-3.16 7-7h-7Z"/><path fill="#D92228" fill-rule="evenodd" d="M13 19c0-4.392 3.608-8 8-8a1 1 0 0 1 1 1v6h6a1 1 0 0 1 1 1c0 4.392-3.608 8-8 8-4.392 0-8-3.608-8-8Zm7-5.915c-2.82.483-5 2.967-5 5.915 0 3.288 2.712 6 6 6 2.948 0 5.432-2.18 5.915-5H21a1 1 0 0 1-1-1v-5.915Z" clip-rule="evenodd"/><path fill="#D92228" d="M25 15h7a7.003 7.003 0 0 0-2.05-4.95A7.002 7.002 0 0 0 25 8v7Z"/><path fill="#D92228" fill-rule="evenodd" d="M24 8a1 1 0 0 1 1-1c2.12 0 4.157.841 5.658 2.342A8.003 8.003 0 0 1 33 15a1 1 0 0 1-1 1h-7a1 1 0 0 1-1-1V8Zm2 1.084V14h4.916A6 6 0 0 0 26 9.084Z" clip-rule="evenodd"/><path fill="#620F12" fill-rule="evenodd" d="M33 22a1 1 0 0 1 1-1h3a1 1 0 1 1 0 2h-3a1 1 0 0 1-1-1Zm-4 4a1 1 0 0 1 1-1h7a1 1 0 1 1 0 2h-7a1 1 0 0 1-1-1Z" clip-rule="evenodd"/><path fill="#D92228" fill-rule="evenodd" d="M18.65 34.437a1 1 0 0 1 .76-.351h10.37a1 1 0 0 1 .988 1.159c-.39 2.433.153 5.266 2.08 7.732a1 1 0 0 1-.788 1.615H17.13a1 1 0 0 1-.788-1.614c1.923-2.468 2.472-5.302 2.081-7.733a1 1 0 0 1 .226-.808Zm1.873 1.649c.12 2.115-.34 4.385-1.529 6.506h11.2a11.908 11.908 0 0 1-1.526-6.506h-8.145ZM44.5 31h-41v-2h41v2Z" clip-rule="evenodd"/><path fill="#620F12" fill-rule="evenodd" d="M11.451 43.592a1 1 0 0 1 1-1h23.101a1 1 0 0 1 0 2h-23.1a1 1 0 0 1-1-1ZM5.993 5.408c-.844 0-1.528.684-1.528 1.527v26.581c0 .844.684 1.528 1.528 1.528h36.016c.844 0 1.528-.684 1.528-1.528V6.936c0-.844-.684-1.528-1.528-1.528H5.993ZM2.465 6.935a3.528 3.528 0 0 1 3.528-3.527h36.016a3.528 3.528 0 0 1 3.528 3.527v26.581a3.528 3.528 0 0 1-3.528 3.528H5.993a3.528 3.528 0 0 1-3.528-3.528V6.936Z" clip-rule="evenodd"/></svg>